<mxfile host="app.diagrams.net" agent="Mozilla/5.0 (Windows NT 10.0; Win64; x64) AppleWebKit/537.36 (KHTML, like Gecko) Chrome/130.0.0.0 Safari/537.36" version="24.7.17">
  <diagram id="C5RBs43oDa-KdzZeNtuy" name="Page-1">
    <mxGraphModel dx="2074" dy="1132" grid="1" gridSize="10" guides="1" tooltips="1" connect="1" arrows="1" fold="1" page="1" pageScale="1" pageWidth="827" pageHeight="1169" math="0" shadow="0">
      <root>
        <mxCell id="WIyWlLk6GJQsqaUBKTNV-0" />
        <mxCell id="WIyWlLk6GJQsqaUBKTNV-1" parent="WIyWlLk6GJQsqaUBKTNV-0" />
        <mxCell id="1E8HLAFnwYggUjKyMHXR-70" value="Não" style="edgeStyle=orthogonalEdgeStyle;rounded=0;orthogonalLoop=1;jettySize=auto;html=1;entryX=1;entryY=0.5;entryDx=0;entryDy=0;" parent="WIyWlLk6GJQsqaUBKTNV-1" source="1E8HLAFnwYggUjKyMHXR-7" target="1E8HLAFnwYggUjKyMHXR-49" edge="1">
          <mxGeometry x="-0.4627" y="-10" relative="1" as="geometry">
            <mxPoint as="offset" />
          </mxGeometry>
        </mxCell>
        <mxCell id="1E8HLAFnwYggUjKyMHXR-7" value="É&lt;div&gt;Fechamento&lt;div&gt;p/ todos&lt;br&gt;OU&lt;br&gt;Reabertura?&lt;/div&gt;&lt;/div&gt;" style="strokeWidth=2;html=1;shape=mxgraph.flowchart.decision;whiteSpace=wrap;fillColor=#d5e8d4;strokeColor=#82b366;" parent="WIyWlLk6GJQsqaUBKTNV-1" vertex="1">
          <mxGeometry x="226.88" y="300" width="166.25" height="120" as="geometry" />
        </mxCell>
        <mxCell id="1E8HLAFnwYggUjKyMHXR-60" value="Não" style="edgeStyle=orthogonalEdgeStyle;rounded=0;orthogonalLoop=1;jettySize=auto;html=1;" parent="WIyWlLk6GJQsqaUBKTNV-1" source="1E8HLAFnwYggUjKyMHXR-9" target="1E8HLAFnwYggUjKyMHXR-53" edge="1">
          <mxGeometry x="0.242" relative="1" as="geometry">
            <mxPoint as="offset" />
          </mxGeometry>
        </mxCell>
        <mxCell id="1E8HLAFnwYggUjKyMHXR-9" value="É reabertura" style="strokeWidth=2;html=1;shape=mxgraph.flowchart.decision;whiteSpace=wrap;fillColor=#d5e8d4;strokeColor=#82b366;" parent="WIyWlLk6GJQsqaUBKTNV-1" vertex="1">
          <mxGeometry x="233.75" y="460" width="152.5" height="100" as="geometry" />
        </mxCell>
        <mxCell id="1E8HLAFnwYggUjKyMHXR-26" value="Set de papéis fechados&lt;br&gt;(memória)" style="shape=internalStorage;whiteSpace=wrap;html=1;dx=15;dy=15;rounded=1;arcSize=8;strokeWidth=2;fillColor=#d5e8d4;strokeColor=#82b366;" parent="WIyWlLk6GJQsqaUBKTNV-1" vertex="1">
          <mxGeometry x="480" y="630" width="130" height="70" as="geometry" />
        </mxCell>
        <mxCell id="1E8HLAFnwYggUjKyMHXR-31" value="" style="edgeStyle=elbowEdgeStyle;elbow=horizontal;endArrow=classic;html=1;curved=0;rounded=0;endSize=8;startSize=8;exitX=1;exitY=0.5;exitDx=0;exitDy=0;entryX=1;entryY=0.5;entryDx=0;entryDy=0;entryPerimeter=0;" parent="WIyWlLk6GJQsqaUBKTNV-1" source="1E8HLAFnwYggUjKyMHXR-53" target="1E8HLAFnwYggUjKyMHXR-62" edge="1">
          <mxGeometry width="50" height="50" relative="1" as="geometry">
            <mxPoint x="611.3199999999998" y="500" as="sourcePoint" />
            <mxPoint x="414" y="350" as="targetPoint" />
            <Array as="points">
              <mxPoint x="600" y="370" />
              <mxPoint x="647.87" y="400" />
              <mxPoint x="654" y="430" />
              <mxPoint x="640.5" y="510" />
              <mxPoint x="660.5" y="470" />
              <mxPoint x="730.5" y="380" />
            </Array>
          </mxGeometry>
        </mxCell>
        <mxCell id="1E8HLAFnwYggUjKyMHXR-33" value="END" style="strokeWidth=2;html=1;shape=mxgraph.flowchart.terminator;whiteSpace=wrap;fillColor=#ffe6cc;strokeColor=#d79b00;" parent="WIyWlLk6GJQsqaUBKTNV-1" vertex="1">
          <mxGeometry x="260" y="610" width="100" height="60" as="geometry" />
        </mxCell>
        <mxCell id="1E8HLAFnwYggUjKyMHXR-34" value="START" style="strokeWidth=2;html=1;shape=mxgraph.flowchart.terminator;whiteSpace=wrap;fillColor=#ffe6cc;strokeColor=#d79b00;" parent="WIyWlLk6GJQsqaUBKTNV-1" vertex="1">
          <mxGeometry x="260.01" y="140" width="100" height="60" as="geometry" />
        </mxCell>
        <mxCell id="1E8HLAFnwYggUjKyMHXR-49" value="&lt;div&gt;Adiciona os papéis&lt;br&gt;da definição no set&lt;br&gt;de papéis fechados&lt;/div&gt;" style="shape=parallelogram;html=1;strokeWidth=2;perimeter=parallelogramPerimeter;whiteSpace=wrap;rounded=1;arcSize=12;size=0.23;fillColor=#fff2cc;strokeColor=#d6b656;" parent="WIyWlLk6GJQsqaUBKTNV-1" vertex="1">
          <mxGeometry x="10" y="310" width="189.5" height="100" as="geometry" />
        </mxCell>
        <mxCell id="1E8HLAFnwYggUjKyMHXR-51" value="Sim" style="edgeStyle=orthogonalEdgeStyle;rounded=0;orthogonalLoop=1;jettySize=auto;html=1;entryX=0.5;entryY=0;entryDx=0;entryDy=0;entryPerimeter=0;" parent="WIyWlLk6GJQsqaUBKTNV-1" source="1E8HLAFnwYggUjKyMHXR-7" target="1E8HLAFnwYggUjKyMHXR-9" edge="1">
          <mxGeometry x="0.0025" relative="1" as="geometry">
            <mxPoint as="offset" />
          </mxGeometry>
        </mxCell>
        <mxCell id="1E8HLAFnwYggUjKyMHXR-53" value="&lt;div&gt;Adiciona todos os&lt;/div&gt;&lt;div&gt;papéis do usuário&lt;/div&gt;&lt;div&gt;na lista em memória&lt;br&gt;&lt;/div&gt;" style="shape=parallelogram;html=1;strokeWidth=2;perimeter=parallelogramPerimeter;whiteSpace=wrap;rounded=1;arcSize=12;size=0.23;fillColor=#fff2cc;strokeColor=#d6b656;" parent="WIyWlLk6GJQsqaUBKTNV-1" vertex="1">
          <mxGeometry x="414" y="460" width="170" height="100" as="geometry" />
        </mxCell>
        <mxCell id="1E8HLAFnwYggUjKyMHXR-54" value="Sim" style="edgeStyle=orthogonalEdgeStyle;rounded=0;orthogonalLoop=1;jettySize=auto;html=1;entryX=0.5;entryY=0;entryDx=0;entryDy=0;entryPerimeter=0;" parent="WIyWlLk6GJQsqaUBKTNV-1" source="1E8HLAFnwYggUjKyMHXR-9" target="1E8HLAFnwYggUjKyMHXR-33" edge="1">
          <mxGeometry relative="1" as="geometry" />
        </mxCell>
        <mxCell id="1E8HLAFnwYggUjKyMHXR-61" style="edgeStyle=orthogonalEdgeStyle;rounded=0;orthogonalLoop=1;jettySize=auto;html=1;" parent="WIyWlLk6GJQsqaUBKTNV-1" source="1E8HLAFnwYggUjKyMHXR-56" target="1E8HLAFnwYggUjKyMHXR-34" edge="1">
          <mxGeometry relative="1" as="geometry" />
        </mxCell>
        <mxCell id="1E8HLAFnwYggUjKyMHXR-56" value="Lista de&#xa;definições de&#xa;fechamentos&#xa;existentes&#xa;em ordenação&#xa;decrescente" style="rounded=1;whiteSpace=wrap;html=1;absoluteArcSize=1;arcSize=14;strokeWidth=2;fillColor=#e1d5e7;strokeColor=#9673a6;" parent="WIyWlLk6GJQsqaUBKTNV-1" vertex="1">
          <mxGeometry x="260.01" y="10" width="100" height="100" as="geometry" />
        </mxCell>
        <mxCell id="1E8HLAFnwYggUjKyMHXR-62" value="P/ cada definição" style="strokeWidth=2;html=1;shape=mxgraph.flowchart.loop_limit;whiteSpace=wrap;fillColor=#fff2cc;strokeColor=#d6b656;" parent="WIyWlLk6GJQsqaUBKTNV-1" vertex="1">
          <mxGeometry x="260" y="220" width="100" height="60" as="geometry" />
        </mxCell>
        <mxCell id="1E8HLAFnwYggUjKyMHXR-63" style="edgeStyle=orthogonalEdgeStyle;rounded=0;orthogonalLoop=1;jettySize=auto;html=1;entryX=0.5;entryY=0;entryDx=0;entryDy=0;entryPerimeter=0;" parent="WIyWlLk6GJQsqaUBKTNV-1" source="1E8HLAFnwYggUjKyMHXR-34" target="1E8HLAFnwYggUjKyMHXR-62" edge="1">
          <mxGeometry relative="1" as="geometry" />
        </mxCell>
        <mxCell id="1E8HLAFnwYggUjKyMHXR-64" style="edgeStyle=orthogonalEdgeStyle;rounded=0;orthogonalLoop=1;jettySize=auto;html=1;entryX=0.5;entryY=0;entryDx=0;entryDy=0;entryPerimeter=0;" parent="WIyWlLk6GJQsqaUBKTNV-1" source="1E8HLAFnwYggUjKyMHXR-62" target="1E8HLAFnwYggUjKyMHXR-7" edge="1">
          <mxGeometry relative="1" as="geometry" />
        </mxCell>
        <mxCell id="1E8HLAFnwYggUjKyMHXR-69" value="" style="edgeStyle=elbowEdgeStyle;elbow=vertical;endArrow=classic;html=1;curved=0;rounded=0;endSize=8;startSize=8;entryX=0;entryY=0.5;entryDx=0;entryDy=0;entryPerimeter=0;exitX=0.5;exitY=0;exitDx=0;exitDy=0;" parent="WIyWlLk6GJQsqaUBKTNV-1" source="1E8HLAFnwYggUjKyMHXR-49" target="1E8HLAFnwYggUjKyMHXR-62" edge="1">
          <mxGeometry width="50" height="50" relative="1" as="geometry">
            <mxPoint x="90" y="310" as="sourcePoint" />
            <mxPoint x="140" y="260" as="targetPoint" />
            <Array as="points">
              <mxPoint x="150" y="250" />
              <mxPoint x="120" y="250" />
            </Array>
          </mxGeometry>
        </mxCell>
      </root>
    </mxGraphModel>
  </diagram>
</mxfile>
